first trial																																					
nRows=13																																					
nColumns=38																																					
																																					
# SIMM Motion File Header:																																					
name MVN-014																																					
datacolumns 38																																					
datarows 13																																					
otherdata 1																																					
range 47.914 48.114																																					
endheader																																					
time	pelvis_tilt	pelvis_list	pelvis_rotation	pelvis_tx	pelvis_ty	pelvis_tz	hip_flexion_r	hip_adduction_r	hip_rotation_r	knee_angle_r	ankle_angle_r	subtalar_angle_r	mtp_angle_r	hip_flexion_l	hip_adduction_l	hip_rotation_l	knee_angle_l	ankle_angle_l	subtalar_angle_l	mtp_angle_l	lumbar_extension	lumbar_bending	lumbar_rotation	arm_flex_r	arm_add_r	arm_rot_r	elbow_flex_r	pro_sup_r	wrist_flex_r	wrist_dev_r	arm_flex_l	arm_add_l	arm_rot_l	elbow_flex_l	pro_sup_l	wrist_flex_l	wrist_dev_l
47.914	21.9894	1.1526	88.4576	-0.2959	0.7819	0.4472	25.2619	-12.7067	8.6804	25.7708	-20.9609	10.1984	0	30.2867	-3.5127	0.8594	40.3568	-12.9979	-0.8507	0	-6.2799	1.3151	-0.2406	45.527	-18.7846	9.0741	93.4879	4.2159	-28.0505	-29.3889	19.728	-32.8099	3.6524	33.6892	107.6693	-6.8718	10.6594
47.931	21.9907	1.1567	88.4558	-0.2959	0.7819	0.4473	25.2659	-12.7086	8.6765	25.7724	-20.9652	10.2067	0	30.2877	-3.512	0.86	40.354	-13.002	-0.8513	0	-6.2908	1.3156	-0.2291	45.7178	-18.8353	9.1876	94.4558	4.163	-28.113	-29.4665	19.7382	-32.81	3.668	33.7159	107.6614	-6.867	10.6575
47.947	21.9922	1.1601	88.4543	-0.2959	0.7818	0.4473	25.2687	-12.71	8.6722	25.7736	-20.9689	10.2137	0	30.2877	-3.5113	0.8622	40.3508	-13.0058	-0.8529	0	-6.2979	1.3151	-0.2199	45.8958	-18.8874	9.3053	95.379	4.1325	-28.0915	-29.5578	19.7425	-32.8131	3.6697	33.7325	107.6643	-6.8627	10.6537
47.964	21.9936	1.1622	88.4534	-0.2958	0.7818	0.4473	25.2697	-12.7106	8.6679	25.7747	-20.9715	10.218	0	30.2859	-3.5102	0.8663	40.3472	-13.0091	-0.856	0	-6.2988	1.3135	-0.216	46.0641	-18.9506	9.4305	96.2335	4.1158	-27.9069	-29.6757	19.736	-32.8204	3.6424	33.7325	107.6881	-6.8593	10.6467
47.981	21.9951	1.1635	88.4528	-0.2958	0.7818	0.4473	25.2694	-12.7108	8.6632	25.7755	-20.9736	10.221	0	30.2831	-3.5091	0.8719	40.3432	-13.0121	-0.8599	0	-6.2959	1.3109	-0.2143	46.2198	-19.0149	9.56	97.0441	4.1197	-27.6397	-29.8052	19.7236	-32.8307	3.6013	33.7224	107.7228	-6.8564	10.6379
47.997	21.9982	1.1638	88.4536	-0.2958	0.7818	0.4473	25.2674	-12.7105	8.6576	25.7762	-20.9761	10.2237	0	30.2793	-3.5082	0.8797	40.3394	-13.0155	-0.8635	0	-6.2936	1.3079	-0.2093	46.3597	-19.0628	9.6898	97.8397	4.1679	-27.3887	-29.9231	19.7146	-32.839	3.5755	33.7087	107.7478	-6.853	10.6304
48.014	22.0032	1.1632	88.4564	-0.2957	0.7818	0.4474	25.2636	-12.7097	8.6509	25.7772	-20.9793	10.2265	0	30.2749	-3.5081	0.8904	40.3356	-13.0196	-0.8665	0	-6.2932	1.3049	-0.1966	46.4683	-19.078	9.824	98.636	4.3022	-27.1837	-30.0283	19.7133	-32.8422	3.5811	33.6891	107.7541	-6.8488	10.6254
48.031	22.0099	1.1617	88.4606	-0.2957	0.7818	0.4474	25.258	-12.7085	8.6434	25.7781	-20.9829	10.2289	0	30.2695	-3.5084	0.9032	40.332	-13.0241	-0.8691	0	-6.2935	1.3015	-0.1805	46.5608	-19.0769	9.9583	99.4171	4.4838	-26.9945	-30.1256	19.7154	-32.8434	3.6022	33.6659	107.7508	-6.844	10.6217
48.047	22.0193	1.159	88.4654	-0.2956	0.7818	0.4474	25.2504	-12.7077	8.6357	25.7784	-20.9875	10.2314	0	30.2631	-3.5082	0.9154	40.3297	-13.0286	-0.8708	0	-6.2955	1.2972	-0.1682	46.6801	-19.0911	10.0761	100.1644	4.6147	-26.8288	-30.2014	19.717	-32.8463	3.6199	33.6518	107.7451	-6.8385	10.6186
48.064	22.0331	1.1552	88.4703	-0.2956	0.7817	0.4475	25.2399	-12.7076	8.6277	25.7779	-20.9941	10.2346	0	30.255	-3.5072	0.9257	40.3292	-13.033	-0.8715	0	-6.3004	1.2913	-0.163	46.8584	-19.1369	10.1686	100.8622	4.635	-26.7082	-30.2463	19.7157	-32.8541	3.6285	33.6543	107.7368	-6.8316	10.6157
48.081	22.0498	1.1503	88.4758	-0.2956	0.7817	0.4476	25.2273	-12.708	8.6196	25.7767	-21.0017	10.2378	0	30.2458	-3.5059	0.9353	40.3299	-13.0374	-0.8714	0	-6.3071	1.2845	-0.1616	47.0636	-19.1979	10.2449	101.5267	4.5994	-26.6098	-30.2711	19.7139	-32.8637	3.6337	33.6659	107.726	-6.8239	10.6134
48.097	22.0659	1.1445	88.4828	-0.2956	0.7816	0.4476	25.2142	-12.7089	8.6115	25.7753	-21.0082	10.2399	0	30.2371	-3.5044	0.9453	40.331	-13.0417	-0.8707	0	-6.3132	1.2784	-0.1616	47.2427	-19.257	10.3157	102.1869	4.5804	-26.4747	-30.2912	19.7141	-32.87	3.6347	33.6772	107.7205	-6.8165	10.6128
48.114	22.0805	1.1376	88.4918	-0.2956	0.7816	0.4477	25.2001	-12.7102	8.6038	25.7738	-21.012	10.2399	0	30.2285	-3.5033	0.9561	40.3317	-13.0459	-0.8692	0	-6.3179	1.2738	-0.1629	47.3769	-19.3052	10.3839	102.8576	4.6151	-26.276	-30.3025	19.7189	-32.8691	3.6287	33.6858	107.7257	-6.8096	10.615
